<svg version="1.2" xmlns="http://www.w3.org/2000/svg" viewBox="-0.2944999999999709 -0.17509999999998627 2386.3773999999994 3109.2993999999994" width="2388" height="3111">
	<defs>
		<linearGradient id="g1" x2="1" gradientUnits="userSpaceOnUse" gradientTransform="matrix(1989.912,-3006.931,4743.913,3139.404,-1502.693,1651.368)">
			<stop offset="0" stop-color="#ff0000"/>
			<stop offset="1" stop-color="#ffff00"/>
		</linearGradient>
		<linearGradient id="g2" x2="1" gradientUnits="userSpaceOnUse" gradientTransform="matrix(202.316,-3500.823,4097.105,236.776,496.145,3333.737)">
			<stop offset="0" stop-color="#ff0000"/>
			<stop offset="1" stop-color="#ffff00"/>
		</linearGradient>
		<linearGradient id="g3" x2="1" gradientUnits="userSpaceOnUse" gradientTransform="matrix(852.066,-3794.22,5936.61,1333.181,-882.388,3267.6)">
			<stop offset="0" stop-color="#ff0000"/>
			<stop offset="1" stop-color="#ffff00"/>
		</linearGradient>
		<linearGradient id="g4" x2="1" gradientUnits="userSpaceOnUse" gradientTransform="matrix(-361.656,-3827.775,8807.759,-832.175,-2424.638,4325.3)">
			<stop offset="0" stop-color="#ff0000"/>
			<stop offset="1" stop-color="#ffff00"/>
		</linearGradient>
	</defs>
	<style>
		.s0 { fill: url(#g1) } 
		.s1 { fill: url(#g2) } 
		.s2 { fill: url(#g3) } 
		.s3 { fill: url(#g4) } 
		.s4 { opacity: .3;fill: #ffff00 } 
		.s5 { opacity: .3;fill: #870000 } 
	</style>
	<g id="Layer 1">
		<g id="&lt;Group&gt;">
			<g id="&lt;Clip Group&gt;">
				<path id="&lt;Path&gt;" class="s0" d="m783.44 2528.26h1602.64v-2528.44h-1602.64z"/>
			</g>
			<g id="&lt;Clip Group&gt;">
				<path id="&lt;Path&gt;" class="s1" d="m748.38 3081.58h941.39v-1101.73h-941.39z"/>
			</g>
			<g id="&lt;Clip Group&gt;">
				<path id="&lt;Path&gt;" class="s2" d="m283.45 3081.58h1045.23v-1635.41h-1045.23z"/>
			</g>
			<g id="&lt;Clip Group&gt;">
				<path id="&lt;Path&gt;" class="s3" d="m-0.29 3109.12h1182.51v-2720.98h-1182.51z"/>
			</g>
			<path id="&lt;Path&gt;" fill-rule="evenodd" class="s4" d="m524.79 773.24c-155.61-71.97-318.95-385.1-318.95-385.1-15.56 466.8 120.61 527.08 120.61 527.08-132.11 399.51-129.39 834.62-79.28 1211.23 56.49-358.07 139.23-750.68 242.13-865.45 202.28-225.61 692.92-73.48 692.92-73.48-183.69-112.14-503.89-343.27-657.43-414.28z"/>
			<path id="&lt;Path&gt;" fill-rule="evenodd" class="s5" d="m573.5 3081.58c0 0-180.87-758.98 98.6-1381.85-42.8-68.95-53.98-126.72-53.98-126.72-150.65 269.9-242.63 728.72-124.75 1508.57z"/>
			<path id="&lt;Path&gt;" fill-rule="evenodd" class="s5" d="m821.91 2549.67c0 0 49.37 22.21 118.06 24.27 139.15-332.75 418.19-587.03 418.19-587.03q-14.52-3.73-29.48-7.06c-0.63 0.38-305.43 186.89-506.77 569.82z"/>
			<path id="&lt;Path&gt;" fill-rule="evenodd" class="s5" d="m1426.89 2008.73c57.98 22.69 106.98 55.25 142.29 106.51 23.74 34.46 36.93 69.07 42.49 103.18q28.87-11.35 55.91-23.2c-36.68-108.28-127.93-183.93-185.85-222.91-24.62 19.3-40.02 28.45-40.02 28.45q-7.15 3.68-14.82 7.97z"/>
			<path id="&lt;Path&gt;" fill-rule="evenodd" class="s5" d="m284 2354.27c35.27-274.4 112.22-808.31 197.49-990.21 103.76-221.36 355.21-229.48 453.36-222.61-152.66-13.31-339.06 0.78-445.55 119.55-102.9 114.77-185.66 507.38-242.16 865.45 10.49 78.79 23.03 155.02 36.86 227.82z"/>
			<path id="&lt;Path&gt;" fill-rule="evenodd" class="s5" d="m1047.22 2226.72c-21.05 23.47-42.4 48.64-63.72 75.52 33.48 3.69 67.15 6.64 100.88 8.85 17.97-26.56 36.13-51.9 54.1-75.86q-12.31-1.11-24.91-1.78c-21.11-1.13-43.34-3.44-66.35-6.73z"/>
			<path id="&lt;Path&gt;" fill-rule="evenodd" class="s5" d="m1138.47 2235.23c-17.96 23.96-36.12 49.3-54.09 75.86q26.49 1.73 52.99 2.86 17.29 0.73 34.56 1.2c35.03 0.97 66.31 4.74 94.27 10.65 198.65 41.94 228.39 190.74 228.39 190.74-5.97-90.71-54.94-163.73-133.87-213.02-54.75-34.19-123.92-56.98-203.14-66.32q-9.46-1.12-19.11-1.97z"/>
			<path id="&lt;Path&gt;" fill-rule="evenodd" class="s4" d="m1047.22 2226.72c148.18-165.31 281.04-246.62 281.46-246.87-124.93-27.81-273.12-36.85-413-86.34-126.4-44.73-200.79-124.84-243.58-193.78-55.61 123.93-92.99 253.25-117.19 380.9 91.21 36.09 224.68 84.96 353.87 117.8 47.49 12.06 94.41 21.97 138.44 28.29z"/>
			<path id="&lt;Path&gt;" fill-rule="evenodd" class="s5" d="m535.87 2200.01c98.78 36.85 206.65 64.83 318.54 84.07 42.55 7.31 85.67 13.36 129.09 18.16 21.32-26.88 42.67-52.05 63.72-75.52-44.03-6.32-90.95-16.23-138.44-28.29-129.19-32.84-262.66-81.71-353.87-117.8-7.59 40.03-13.89 79.89-19.04 119.38z"/>
			<path id="&lt;Path&gt;" fill-rule="evenodd" class="s5" d="m467.08 2044.6c-5.94 38.56-10.99 78.85-15.09 120.94 27.1 12.25 55.11 23.73 83.88 34.47 5.15-39.49 11.45-79.35 19.04-119.38-37.49-14.84-67.85-27.52-87.83-36.03z"/>
			<path id="&lt;Path&gt;" fill-rule="evenodd" class="s4" d="m1358.16 1986.91c0 0-105.87 96.47-219.69 248.31q9.64 0.87 19.11 1.98c79.22 9.34 148.39 32.13 203.14 66.32 78.93 49.29 127.9 122.31 133.87 213.02 1.85 28.29-0.46 58.28-7.37 89.83 3.26-14.54 7.19-28.04 11.94-39.91 31.24-78.11 135.25-208.89 112.51-348.04-5.56-34.11-18.75-68.72-42.49-103.18-35.31-51.26-84.31-83.82-142.29-106.51-21.73-8.5-44.72-15.62-68.73-21.82z"/>
			<path id="&lt;Path&gt;" fill-rule="evenodd" class="s5" d="m1968.3 808.75c14.6 452.57 128.52 1001.03-365.15 1272.65q-20.58 11.35-42.61 22.02 4.44 5.74 8.64 11.82c14.75 21.41 25.41 42.87 32.73 64.23 14.31-6.49 30.93-14.51 49.14-24.12 125.35-66.24 325.73-208.56 367.82-455.81 62.23-365.65-50.34-830.95-34.9-1103.98-12.03 65.47-18.14 136.6-15.67 213.19z"/>
			<path id="&lt;Path&gt;" fill-rule="evenodd" class="s4" d="m1603.15 2081.4c493.67-271.62 379.75-820.08 365.15-1272.65-2.47-76.58 3.64-147.72 15.67-213.19 0.63-11.14 2.7-21.3 6.12-30.55 71.08-327.47 287.49-504.84 287.49-504.84 16.74-18.8 31.31-33.2 42.1-43.2-599.53 525.85-455.35 812.76-501.54 1297.64-36.59 384.22-247.13 587.7-336.41 657.7 34.8 23.42 81.64 60.08 121.42 109.09z"/>
		</g>
	</g>
</svg>